name rise44.8762peak52.3436fall86.788.mot
datacolumns 19
datarows 49
range 18.753257 18.833259
endheader
time	ground_force1_vx	ground_force1_vy	ground_force1_vz	ground_force1_px	ground_force1_py	ground_force1_pz	ground_force2_vx	ground_force2_vy	ground_force2_vz	ground_force2_px	ground_force2_py	ground_force2_pz	ground_torque1_x	ground_torque1_y	ground_torque1_z	ground_torque2_x	ground_torque2_y	ground_torque2_z	
18.753257	-41.760975	224.725345	3.626124	0.019718	0.000000	0.098809	77.116506	595.186514	-52.652014	0.350800	0.000000	-0.110119	0.000000	8.035377	0.000000	0.000000	-18.300870	0.000000	
18.754923	-40.275248	215.747971	3.312122	0.018157	0.000000	0.098790	77.408982	600.509148	-53.127326	0.349806	0.000000	-0.110090	0.000000	7.724694	0.000000	0.000000	-18.464227	0.000000	
18.756591	-38.772305	206.896967	3.014741	0.016594	0.000000	0.098774	77.673802	605.830131	-53.585199	0.348831	0.000000	-0.110058	0.000000	7.412825	0.000000	0.000000	-18.620334	0.000000	
18.758264	-37.255881	198.193606	2.733701	0.015034	0.000000	0.098761	77.911811	611.149110	-54.026647	0.347876	0.000000	-0.110022	0.000000	7.100267	0.000000	0.000000	-18.769867	0.000000	
18.759930	-35.729510	189.658867	2.468691	0.013481	0.000000	0.098751	78.123851	616.465487	-54.452704	0.346942	0.000000	-0.109983	0.000000	6.787467	0.000000	0.000000	-18.913510	0.000000	
18.761596	-34.196394	181.312084	2.219373	0.011940	0.000000	0.098744	78.310754	621.778414	-54.864411	0.346029	0.000000	-0.109941	0.000000	6.474805	0.000000	0.000000	-19.051943	0.000000	
18.763262	-32.659281	173.169386	1.985392	0.010417	0.000000	0.098740	78.473343	627.086799	-55.262813	0.345138	0.000000	-0.109895	0.000000	6.162584	0.000000	0.000000	-19.185844	0.000000	
18.764929	-31.120364	165.242034	1.766377	0.008918	0.000000	0.098738	78.612422	632.389306	-55.648954	0.344269	0.000000	-0.109847	0.000000	5.851018	0.000000	0.000000	-19.315884	0.000000	
18.766599	-29.581208	157.534778	1.561955	0.007451	0.000000	0.098738	78.728777	637.684356	-56.023866	0.343424	0.000000	-0.109795	0.000000	5.540237	0.000000	0.000000	-19.442722	0.000000	
18.768259	-28.042729	150.044375	1.371752	0.006023	0.000000	0.098740	78.823171	642.970135	-56.388567	0.342600	0.000000	-0.109741	0.000000	5.230297	0.000000	0.000000	-19.567003	0.000000	
18.769929	-26.505232	142.758465	1.195404	0.004646	0.000000	0.098742	78.896343	648.244594	-56.744055	0.341800	0.000000	-0.109685	0.000000	4.921197	0.000000	0.000000	-19.689351	0.000000	
18.771595	-24.968513	135.654965	1.032559	0.003329	0.000000	0.098746	78.949005	653.505461	-57.091300	0.341021	0.000000	-0.109626	0.000000	4.612913	0.000000	0.000000	-19.810374	0.000000	
18.773260	-23.432044	128.702170	0.882884	0.002086	0.000000	0.098749	78.981839	658.750240	-57.431240	0.340265	0.000000	-0.109565	0.000000	4.305440	0.000000	0.000000	-19.930650	0.000000	
18.774931	-21.895226	121.859702	0.746061	0.000930	0.000000	0.098751	78.995497	663.976226	-57.764777	0.339531	0.000000	-0.109502	0.000000	3.998842	0.000000	0.000000	-20.050736	0.000000	
18.776589	-20.357714	115.080417	0.621786	-0.000120	0.000000	0.098751	78.990599	669.180509	-58.092773	0.338818	0.000000	-0.109437	0.000000	3.693314	0.000000	0.000000	-20.171156	0.000000	
18.778256	-18.819797	108.313285	0.509764	-0.001045	0.000000	0.098749	78.967733	674.359985	-58.416040	0.338125	0.000000	-0.109371	0.000000	3.389239	0.000000	0.000000	-20.292403	0.000000	
18.779932	-17.282804	101.507218	0.409697	-0.001823	0.000000	0.098743	78.927454	679.511367	-58.735345	0.337452	0.000000	-0.109304	0.000000	3.087248	0.000000	0.000000	-20.414936	0.000000	
18.781593	-15.749511	94.615648	0.321272	-0.002425	0.000000	0.098731	78.870282	684.631193	-59.051400	0.336798	0.000000	-0.109235	0.000000	2.788278	0.000000	0.000000	-20.539179	0.000000	
18.783258	-14.224502	87.601619	0.244143	-0.002821	0.000000	0.098713	78.796705	689.715840	-59.364860	0.336161	0.000000	-0.109165	0.000000	2.493601	0.000000	0.000000	-20.665519	0.000000	
18.784926	-12.714451	80.442977	0.177916	-0.002970	0.000000	0.098685	78.707177	694.761540	-59.676322	0.335542	0.000000	-0.109094	0.000000	2.204846	0.000000	0.000000	-20.794301	0.000000	
18.786594	-11.228268	73.137188	0.122132	-0.002828	0.000000	0.098646	78.602120	699.764385	-59.986319	0.334938	0.000000	-0.109022	0.000000	1.923990	0.000000	0.000000	-20.925832	0.000000	
18.788256	-9.777070	65.705214	0.076247	-0.002338	0.000000	0.098592	78.481923	704.720348	-60.295323	0.334348	0.000000	-0.108950	0.000000	1.653309	0.000000	0.000000	-21.060379	0.000000	
18.789923	-8.373945	58.193863	0.039623	-0.001432	0.000000	0.098521	78.346945	709.625295	-60.603740	0.333772	0.000000	-0.108877	0.000000	1.395310	0.000000	0.000000	-21.198162	0.000000	
18.791601	-7.033483	50.676056	0.011520	-0.000024	0.000000	0.098426	78.197515	714.474998	-60.911908	0.333207	0.000000	-0.108804	0.000000	1.152611	0.000000	0.000000	-21.339361	0.000000	
18.793265	-5.771074	43.248579	-0.008899	0.001990	0.000000	0.098303	78.033934	719.265155	-61.220100	0.332653	0.000000	-0.108731	0.000000	0.927806	0.000000	0.000000	-21.484113	0.000000	
18.794926	-4.602004	36.027088	-0.022563	0.004745	0.000000	0.098144	77.856475	723.991400	-61.528520	0.332108	0.000000	-0.108658	0.000000	0.723298	0.000000	0.000000	-21.632509	0.000000	
18.796595	-3.540402	29.138475	-0.030468	0.008414	0.000000	0.097940	77.665387	728.649325	-61.837304	0.331570	0.000000	-0.108585	0.000000	0.541122	0.000000	0.000000	-21.784598	0.000000	
18.798263	-2.598133	22.711136	-0.033649	0.000000	0.000000	0.000000	77.460896	733.234491	-62.146523	0.331038	0.000000	-0.108512	0.000000	0.129450	0.000000	0.000000	-21.940383	0.000000	
18.799928	-1.783774	16.864190	-0.033145	0.000000	0.000000	0.000000	77.243207	737.742448	-62.456179	0.330511	0.000000	-0.108440	0.000000	0.076129	0.000000	0.000000	-22.099825	0.000000	
18.801600	-1.101798	11.697080	-0.029956	0.000000	0.000000	0.000000	77.012504	742.168748	-62.766212	0.329986	0.000000	-0.108368	0.000000	0.034243	0.000000	0.000000	-22.262844	0.000000	
18.803256	-0.552114	7.281054	-0.025011	0.000000	0.000000	0.000000	76.768956	746.508965	-63.076497	0.329463	0.000000	-0.108297	0.000000	0.003035	0.000000	0.000000	-22.429316	0.000000	
18.804929	-0.130004	3.653652	-0.019130	0.000000	0.000000	0.000000	76.512715	750.758711	-63.386847	0.328941	0.000000	-0.108226	0.000000	-0.018545	0.000000	0.000000	-22.599077	0.000000	
18.806593	0.000000	0.000000	0.000000	0.000000	0.000000	0.000000	76.243921	754.913649	-63.697017	0.328416	0.000000	-0.108156	0.000000	0.000000	0.000000	0.000000	-22.771924	0.000000	
18.808262	0.000000	0.000000	0.000000	0.000000	0.000000	0.000000	75.962704	758.969512	-64.006707	0.327888	0.000000	-0.108087	0.000000	0.000000	0.000000	0.000000	-22.947617	0.000000	
18.809924	0.000000	0.000000	0.000000	0.000000	0.000000	0.000000	75.669183	762.922120	-64.315563	0.327356	0.000000	-0.108019	0.000000	0.000000	0.000000	0.000000	-23.125879	0.000000	
18.811592	0.000000	0.000000	0.000000	0.000000	0.000000	0.000000	75.363474	766.767391	-64.623180	0.326818	0.000000	-0.107952	0.000000	0.000000	0.000000	0.000000	-23.306400	0.000000	
18.813258	0.000000	0.000000	0.000000	0.000000	0.000000	0.000000	75.045684	770.501361	-64.929108	0.326272	0.000000	-0.107887	0.000000	0.000000	0.000000	0.000000	-23.488837	0.000000	
18.814928	0.000000	0.000000	0.000000	0.000000	0.000000	0.000000	74.715922	774.120196	-65.232855	0.325718	0.000000	-0.107822	0.000000	0.000000	0.000000	0.000000	-23.672819	0.000000	
18.816589	0.000000	0.000000	0.000000	0.000000	0.000000	0.000000	74.374292	777.620206	-65.533890	0.325153	0.000000	-0.107758	0.000000	0.000000	0.000000	0.000000	-23.857949	0.000000	
18.818260	0.000000	0.000000	0.000000	0.000000	0.000000	0.000000	74.020903	780.997863	-65.831649	0.324577	0.000000	-0.107696	0.000000	0.000000	0.000000	0.000000	-24.043804	0.000000	
18.819926	0.000000	0.000000	0.000000	0.000000	0.000000	0.000000	73.655863	784.249807	-66.125537	0.323988	0.000000	-0.107635	0.000000	0.000000	0.000000	0.000000	-24.229942	0.000000	
18.821597	0.000000	0.000000	0.000000	0.000000	0.000000	0.000000	73.279287	787.372864	-66.414936	0.323385	0.000000	-0.107575	0.000000	0.000000	0.000000	0.000000	-24.415902	0.000000	
18.823256	0.000000	0.000000	0.000000	0.000000	0.000000	0.000000	72.891296	790.364057	-66.699206	0.322767	0.000000	-0.107517	0.000000	0.000000	0.000000	0.000000	-24.601206	0.000000	
18.824927	0.000000	0.000000	0.000000	0.000000	0.000000	0.000000	72.492018	793.220617	-66.977693	0.322133	0.000000	-0.107460	0.000000	0.000000	0.000000	0.000000	-24.785367	0.000000	
18.826598	0.000000	0.000000	0.000000	0.000000	0.000000	0.000000	72.081588	795.939991	-67.249730	0.321482	0.000000	-0.107404	0.000000	0.000000	0.000000	0.000000	-24.967888	0.000000	
18.828262	0.000000	0.000000	0.000000	0.000000	0.000000	0.000000	71.660154	798.519854	-67.514646	0.320813	0.000000	-0.107349	0.000000	0.000000	0.000000	0.000000	-25.148266	0.000000	
18.829928	0.000000	0.000000	0.000000	0.000000	0.000000	0.000000	71.227872	800.958118	-67.771769	0.320125	0.000000	-0.107296	0.000000	0.000000	0.000000	0.000000	-25.325996	0.000000	
18.831597	0.000000	0.000000	0.000000	0.000000	0.000000	0.000000	70.784913	803.252937	-68.020429	0.319417	0.000000	-0.107244	0.000000	0.000000	0.000000	0.000000	-25.500573	0.000000	
18.833259	0.000000	0.000000	0.000000	0.000000	0.000000	0.000000	70.331457	805.402719	-68.259964	0.318689	0.000000	-0.107193	0.000000	0.000000	0.000000	0.000000	-25.671498	0.000000	
